<?xml version="1.0" encoding="UTF-8"?>
<svg width="800px" height="600px" viewBox="0 0 800 600" version="1.1" xmlns="http://www.w3.org/2000/svg" xmlns:xlink="http://www.w3.org/1999/xlink">
    <!-- Generator: Sketch 53.2 (72643) - https://sketchapp.com -->
    <title>examples-matrix</title>
    <desc>Created with Sketch.</desc>
    <g id="examples-matrix" stroke="none" stroke-width="1" fill="none" fill-rule="evenodd">
        <rect id="Rectangle-36" stroke="#979797" x="5.5" y="5.5" width="789" height="589"></rect>
        <rect id="Rectangle-37" fill="#FCD5C2" x="100" y="66" width="50" height="50"></rect>
        <circle id="Oval-3" stroke="#979797" fill="#979797" cx="124.5" cy="116.5" r="3.5"></circle>
        <g id="Group-64" transform="translate(28.000000, 206.000000)">
            <rect id="Rectangle-38" fill="#FCD5C2" x="0" y="0" width="200" height="50"></rect>
            <text id="age:-29-name:-Thomas" font-family="OpenSans-Regular, Open Sans" font-size="12" font-weight="normal" fill="#333333">
                <tspan x="47" y="21">age: 29</tspan>
                <tspan x="47" y="38">name: Thomas Anderson</tspan>
            </text>
        </g>
        <circle id="Oval-3" stroke="#979797" fill="#979797" cx="126.331159" cy="255.977065" r="3.5"></circle>
        <g id="Group-62" transform="translate(305.000000, 55.000000)">
            <g id="Group-61" fill="#BCE9F4">
                <g id="Group-60">
                    <rect id="Rectangle-38" x="0" y="0" width="200" height="75"></rect>
                </g>
            </g>
            <text id="language:-C++-name:" font-family="OpenSans-Regular, Open Sans" font-size="12" font-weight="normal" fill="#333333">
                <tspan x="50" y="24">language: C++</tspan>
                <tspan x="50" y="41">name: Agent Smith</tspan>
                <tspan x="50" y="58">version: 1.0b</tspan>
            </text>
        </g>
        <g id="Group-62" transform="translate(446.000000, 475.000000)">
            <g id="Group-61" fill="#BCE9F4">
                <g id="Group-60">
                    <rect id="Rectangle-38" x="0" y="0" width="200" height="75"></rect>
                </g>
            </g>
            <text id="name:-Morpheus-occup" font-family="OpenSans-Regular, Open Sans" font-size="12" font-weight="normal" fill="#333333">
                <tspan x="50" y="24">name: Morpheus</tspan>
                <tspan x="50" y="41">occupation: Total badass</tspan>
                <tspan x="50" y="58">rank: Captain</tspan>
            </text>
        </g>
        <circle id="Oval-3" stroke="#979797" fill="#979797" cx="446.5" cy="512.5" r="3.5"></circle>
        <circle id="Oval-3" stroke="#979797" fill="#979797" cx="549.5" cy="475.5" r="3.5"></circle>
        <rect id="Rectangle-38" fill="#D1EBD4" x="567" y="180" width="200" height="50"></rect>
        <g id="Group-55" transform="translate(86.000000, 488.000000)">
            <g id="Group-50" fill="#BCE9F4">
                <rect id="Rectangle-38" x="0" y="0" width="200" height="50"></rect>
            </g>
            <text id="name:-Trinity" font-family="OpenSans-Regular, Open Sans" font-size="12" font-weight="normal" fill="#333333">
                <tspan x="46" y="28">name: Trinity</tspan>
            </text>
        </g>
        <g id="Group-63" transform="translate(467.000000, 306.000000)">
            <g id="Group-50" fill="#BCE9F4">
                <rect id="Rectangle-38" x="0" y="0" width="200" height="50"></rect>
            </g>
            <text id="last-name:-Reagan-na" font-family="OpenSans-Regular, Open Sans" font-size="12" font-weight="normal" fill="#333333">
                <tspan x="46" y="21">last name: Reagan</tspan>
                <tspan x="46" y="38">name: Cypher</tspan>
            </text>
        </g>
        <text id="name:-The-Architect" font-family="OpenSans-Regular, Open Sans" font-size="12" font-weight="normal" fill="#333333">
            <tspan x="614" y="209">name: The Architect</tspan>
        </text>
        <path d="M124.5,116 L124.5,197.5" id="Line-21" stroke="#979797" stroke-width="2" stroke-linecap="square"></path>
        <polygon id="Triangle-7" fill="#979797" transform="translate(124.462532, 198.089325) rotate(90.000000) translate(-124.462532, -198.089325) " points="129.462532 198.089325 119.462532 203.089325 119.462532 193.089325"></polygon>
        <polygon id="Triangle-7" fill="#979797" transform="translate(176.323386, 479.916829) rotate(76.000000) translate(-176.323386, -479.916829) " points="181.323386 479.916829 171.323386 484.916829 171.323386 474.916829"></polygon>
        <polygon id="Triangle-7" fill="#979797" transform="translate(439.076303, 469.060929) rotate(45.000000) translate(-439.076303, -469.060929) " points="444.076303 469.060929 434.076303 474.060929 434.076303 464.060929"></polygon>
        <circle id="Oval-3" stroke="#979797" fill="#979797" cx="227.5" cy="255.5" r="3.5"></circle>
        <circle id="Oval-3" stroke="#979797" fill="#979797" cx="563.5" cy="306.5" r="3.5"></circle>
        <circle id="Oval-3" stroke="#979797" fill="#979797" cx="504.5" cy="129.5" r="3.5"></circle>
        <path d="M126.5,255.5 L175,475" id="Line-22" stroke="#979797" stroke-width="2" stroke-linecap="square"></path>
        <path d="M228.5,256.5 L437.5,467.5" id="Line-23" stroke="#979797" stroke-width="2" stroke-linecap="square"></path>
        <path d="M446.5,512.5 L293.5,512.5" id="Line-24" stroke="#979797" stroke-width="2" stroke-linecap="square"></path>
        <path d="M550.5,473.5 L562.5,365.5" id="Line-25" stroke="#979797" stroke-width="2" stroke-linecap="square"></path>
        <path d="M560.5,303.5 L419,139" id="Line-26" stroke="#979797" stroke-width="2" stroke-linecap="square"></path>
        <polygon id="Triangle-7" fill="#979797" transform="translate(417.202418, 136.954156) scale(1, -1) rotate(131.000000) translate(-417.202418, -136.954156) " points="422.202418 136.954156 412.202418 141.954156 412.202418 131.954156"></polygon>
        <polygon id="Triangle-7" fill="#979797" transform="translate(560.087235, 174.969333) rotate(39.000000) translate(-560.087235, -174.969333) " points="565.087235 174.969333 555.087235 179.969333 555.087235 169.969333"></polygon>
        <text id="NEO_NODE" font-family="OpenSans-Regular, Open Sans" font-size="12" font-weight="normal" fill="#333333">
            <tspan x="139" y="164">NEO_NODE</tspan>
        </text>
        <text id="CODED_BY" font-family="OpenSans-Regular, Open Sans" font-size="12" font-weight="normal" fill="#333333">
            <tspan x="552" y="152">CODED_BY</tspan>
        </text>
        <text id="KNOWS" font-family="OpenSans-Regular, Open Sans" font-size="12" font-weight="normal" fill="#333333">
            <tspan x="277" y="372">KNOWS</tspan>
        </text>
        <path d="M506.5,131.5 L559.5,174.5" id="Line-27" stroke="#979797" stroke-width="2" stroke-linecap="square"></path>
        <polygon id="Triangle-7" fill="#979797" transform="translate(294.065331, 512.581685) rotate(180.000000) translate(-294.065331, -512.581685) " points="299.065331 512.581685 289.065331 517.581685 289.065331 507.581685"></polygon>
        <polygon id="Triangle-7" fill="#979797" transform="translate(562.650304, 364.147204) scale(1, -1) rotate(84.000000) translate(-562.650304, -364.147204) " points="567.650304 364.147204 557.650304 369.147204 557.650304 359.147204"></polygon>
        <text id="KNOWS-disclosure:-pu" font-family="OpenSans-Regular, Open Sans" font-size="12" font-weight="normal" fill="#333333">
            <tspan x="575" y="414">KNOWS</tspan>
            <tspan x="575" y="431">disclosure: public</tspan>
        </text>
        <text id="KNOWS-age:-3-days" font-family="OpenSans-Regular, Open Sans" font-size="12" font-weight="normal" fill="#333333">
            <tspan x="77" y="390">KNOWS</tspan>
            <tspan x="77" y="407">age: 3 days</tspan>
        </text>
        <text id="KNOWS-age:-12-years" font-family="OpenSans-Regular, Open Sans" font-size="12" font-weight="normal" fill="#333333">
            <tspan x="341" y="531">KNOWS</tspan>
            <tspan x="341" y="548">age: 12 years</tspan>
        </text>
        <g id="Group" transform="translate(110.000000, 79.000000)" stroke="#4A4A4A" stroke-width="2">
            <polyline id="Path-14" points="0 16 14.5 0 29 16"></polyline>
            <polyline id="Path-15" points="5 11 5 26 18.8181818 26 24 26 24 11"></polyline>
            <polyline id="Path-17" points="11 25 11 18 18 18 18 25"></polyline>
        </g>
        <text id="KNOWS-age:-6-months" font-family="OpenSans-Regular, Open Sans" font-size="12" font-weight="normal" fill="#333333">
            <tspan x="395" y="219">KNOWS</tspan>
            <tspan x="395" y="236">age: 6 months</tspan>
            <tspan x="395" y="253">disclosure: secret</tspan>
        </text>
        <g id="Neo4j-icon-color" transform="translate(35.000000, 216.000000)" fill-rule="nonzero">
            <path d="M21.4998218,0 C15.2170943,0 11,3.52056234 11,10.3551298 L11,15.2252601 C11.6170706,14.9418657 12.3045854,14.7784723 13.0326087,14.7784723 C13.7696603,14.7784723 14.4651936,14.9458677 15.0880257,15.2358938 L15.0880257,10.3551298 C15.0880257,5.9229831 17.627168,3.64479394 21.4998218,3.64479394 C25.372832,3.64479394 27.9119743,5.9229831 27.9119743,10.3551298 L27.9119743,21 L32,21 L32,10.3551298 C32,3.47939955 27.7828463,0 21.4998218,0 Z" id="Path" fill="#000000"></path>
            <path d="M12.5686579,16.4532287 C11.7942558,16.4532287 11.0813585,16.722936 10.5064978,17.1719264 L6.73169524,14.5059781 C6.81498307,14.2003901 6.86268429,13.8795107 6.86268429,13.5467713 C6.86268429,11.5912128 5.32325725,10 3.43134214,10 C1.53942703,10 0,11.5912128 0,13.5467713 C0,15.5026911 1.53942703,17.0935427 3.43134214,17.0935427 C4.20574424,17.0935427 4.91864148,16.8238354 5.49350224,16.374845 L9.26830476,19.0407932 C9.18501693,19.3463812 9.13731571,19.6672607 9.13731571,20 C9.13731571,20.3327393 9.18501693,20.6536188 9.26830476,20.9592068 L5.49350224,23.625155 C4.91864148,23.1761646 4.20574424,22.9064573 3.43134214,22.9064573 C1.53942703,22.9064573 2.06921549e-15,24.4973089 2.06921549e-15,26.4532287 C2.06921549e-15,28.4091484 1.53942703,30 3.43134214,30 C5.32325725,30 6.86268429,28.4091484 6.86268429,26.4532287 C6.86268429,26.1204893 6.81498307,25.7996099 6.73169524,25.4940219 L10.5064978,22.8280736 C11.0813585,23.277064 11.794314,23.5467713 12.5686579,23.5467713 C14.460573,23.5467713 16,21.9559197 16,20 C16,18.0440803 14.460573,16.4532287 12.5686579,16.4532287 Z" id="Path" fill="#018BFF"></path>
        </g>
        <g id="Neo4j-icon-color" transform="translate(312.000000, 73.000000)" fill-rule="nonzero">
            <path d="M21.4998218,0 C15.2170943,0 11,3.52056234 11,10.3551298 L11,15.2252601 C11.6170706,14.9418657 12.3045854,14.7784723 13.0326087,14.7784723 C13.7696603,14.7784723 14.4651936,14.9458677 15.0880257,15.2358938 L15.0880257,10.3551298 C15.0880257,5.9229831 17.627168,3.64479394 21.4998218,3.64479394 C25.372832,3.64479394 27.9119743,5.9229831 27.9119743,10.3551298 L27.9119743,21 L32,21 L32,10.3551298 C32,3.47939955 27.7828463,0 21.4998218,0 Z" id="Path" fill="#000000"></path>
            <path d="M12.5686579,16.4532287 C11.7942558,16.4532287 11.0813585,16.722936 10.5064978,17.1719264 L6.73169524,14.5059781 C6.81498307,14.2003901 6.86268429,13.8795107 6.86268429,13.5467713 C6.86268429,11.5912128 5.32325725,10 3.43134214,10 C1.53942703,10 0,11.5912128 0,13.5467713 C0,15.5026911 1.53942703,17.0935427 3.43134214,17.0935427 C4.20574424,17.0935427 4.91864148,16.8238354 5.49350224,16.374845 L9.26830476,19.0407932 C9.18501693,19.3463812 9.13731571,19.6672607 9.13731571,20 C9.13731571,20.3327393 9.18501693,20.6536188 9.26830476,20.9592068 L5.49350224,23.625155 C4.91864148,23.1761646 4.20574424,22.9064573 3.43134214,22.9064573 C1.53942703,22.9064573 2.06921549e-15,24.4973089 2.06921549e-15,26.4532287 C2.06921549e-15,28.4091484 1.53942703,30 3.43134214,30 C5.32325725,30 6.86268429,28.4091484 6.86268429,26.4532287 C6.86268429,26.1204893 6.81498307,25.7996099 6.73169524,25.4940219 L10.5064978,22.8280736 C11.0813585,23.277064 11.794314,23.5467713 12.5686579,23.5467713 C14.460573,23.5467713 16,21.9559197 16,20 C16,18.0440803 14.460573,16.4532287 12.5686579,16.4532287 Z" id="Path" fill="#018BFF"></path>
        </g>
        <g id="Neo4j-icon-color" transform="translate(575.000000, 190.000000)" fill-rule="nonzero">
            <path d="M21.4998218,0 C15.2170943,0 11,3.52056234 11,10.3551298 L11,15.2252601 C11.6170706,14.9418657 12.3045854,14.7784723 13.0326087,14.7784723 C13.7696603,14.7784723 14.4651936,14.9458677 15.0880257,15.2358938 L15.0880257,10.3551298 C15.0880257,5.9229831 17.627168,3.64479394 21.4998218,3.64479394 C25.372832,3.64479394 27.9119743,5.9229831 27.9119743,10.3551298 L27.9119743,21 L32,21 L32,10.3551298 C32,3.47939955 27.7828463,0 21.4998218,0 Z" id="Path" fill="#000000"></path>
            <path d="M12.5686579,16.4532287 C11.7942558,16.4532287 11.0813585,16.722936 10.5064978,17.1719264 L6.73169524,14.5059781 C6.81498307,14.2003901 6.86268429,13.8795107 6.86268429,13.5467713 C6.86268429,11.5912128 5.32325725,10 3.43134214,10 C1.53942703,10 0,11.5912128 0,13.5467713 C0,15.5026911 1.53942703,17.0935427 3.43134214,17.0935427 C4.20574424,17.0935427 4.91864148,16.8238354 5.49350224,16.374845 L9.26830476,19.0407932 C9.18501693,19.3463812 9.13731571,19.6672607 9.13731571,20 C9.13731571,20.3327393 9.18501693,20.6536188 9.26830476,20.9592068 L5.49350224,23.625155 C4.91864148,23.1761646 4.20574424,22.9064573 3.43134214,22.9064573 C1.53942703,22.9064573 2.06921549e-15,24.4973089 2.06921549e-15,26.4532287 C2.06921549e-15,28.4091484 1.53942703,30 3.43134214,30 C5.32325725,30 6.86268429,28.4091484 6.86268429,26.4532287 C6.86268429,26.1204893 6.81498307,25.7996099 6.73169524,25.4940219 L10.5064978,22.8280736 C11.0813585,23.277064 11.794314,23.5467713 12.5686579,23.5467713 C14.460573,23.5467713 16,21.9559197 16,20 C16,18.0440803 14.460573,16.4532287 12.5686579,16.4532287 Z" id="Path" fill="#018BFF"></path>
        </g>
        <g id="Neo4j-icon-color" transform="translate(474.000000, 317.000000)" fill-rule="nonzero">
            <path d="M21.4998218,0 C15.2170943,0 11,3.52056234 11,10.3551298 L11,15.2252601 C11.6170706,14.9418657 12.3045854,14.7784723 13.0326087,14.7784723 C13.7696603,14.7784723 14.4651936,14.9458677 15.0880257,15.2358938 L15.0880257,10.3551298 C15.0880257,5.9229831 17.627168,3.64479394 21.4998218,3.64479394 C25.372832,3.64479394 27.9119743,5.9229831 27.9119743,10.3551298 L27.9119743,21 L32,21 L32,10.3551298 C32,3.47939955 27.7828463,0 21.4998218,0 Z" id="Path" fill="#000000"></path>
            <path d="M12.5686579,16.4532287 C11.7942558,16.4532287 11.0813585,16.722936 10.5064978,17.1719264 L6.73169524,14.5059781 C6.81498307,14.2003901 6.86268429,13.8795107 6.86268429,13.5467713 C6.86268429,11.5912128 5.32325725,10 3.43134214,10 C1.53942703,10 0,11.5912128 0,13.5467713 C0,15.5026911 1.53942703,17.0935427 3.43134214,17.0935427 C4.20574424,17.0935427 4.91864148,16.8238354 5.49350224,16.374845 L9.26830476,19.0407932 C9.18501693,19.3463812 9.13731571,19.6672607 9.13731571,20 C9.13731571,20.3327393 9.18501693,20.6536188 9.26830476,20.9592068 L5.49350224,23.625155 C4.91864148,23.1761646 4.20574424,22.9064573 3.43134214,22.9064573 C1.53942703,22.9064573 2.06921549e-15,24.4973089 2.06921549e-15,26.4532287 C2.06921549e-15,28.4091484 1.53942703,30 3.43134214,30 C5.32325725,30 6.86268429,28.4091484 6.86268429,26.4532287 C6.86268429,26.1204893 6.81498307,25.7996099 6.73169524,25.4940219 L10.5064978,22.8280736 C11.0813585,23.277064 11.794314,23.5467713 12.5686579,23.5467713 C14.460573,23.5467713 16,21.9559197 16,20 C16,18.0440803 14.460573,16.4532287 12.5686579,16.4532287 Z" id="Path" fill="#018BFF"></path>
        </g>
        <g id="Neo4j-icon-color" transform="translate(456.000000, 494.000000)" fill-rule="nonzero">
            <path d="M21.4998218,0 C15.2170943,0 11,3.52056234 11,10.3551298 L11,15.2252601 C11.6170706,14.9418657 12.3045854,14.7784723 13.0326087,14.7784723 C13.7696603,14.7784723 14.4651936,14.9458677 15.0880257,15.2358938 L15.0880257,10.3551298 C15.0880257,5.9229831 17.627168,3.64479394 21.4998218,3.64479394 C25.372832,3.64479394 27.9119743,5.9229831 27.9119743,10.3551298 L27.9119743,21 L32,21 L32,10.3551298 C32,3.47939955 27.7828463,0 21.4998218,0 Z" id="Path" fill="#000000"></path>
            <path d="M12.5686579,16.4532287 C11.7942558,16.4532287 11.0813585,16.722936 10.5064978,17.1719264 L6.73169524,14.5059781 C6.81498307,14.2003901 6.86268429,13.8795107 6.86268429,13.5467713 C6.86268429,11.5912128 5.32325725,10 3.43134214,10 C1.53942703,10 0,11.5912128 0,13.5467713 C0,15.5026911 1.53942703,17.0935427 3.43134214,17.0935427 C4.20574424,17.0935427 4.91864148,16.8238354 5.49350224,16.374845 L9.26830476,19.0407932 C9.18501693,19.3463812 9.13731571,19.6672607 9.13731571,20 C9.13731571,20.3327393 9.18501693,20.6536188 9.26830476,20.9592068 L5.49350224,23.625155 C4.91864148,23.1761646 4.20574424,22.9064573 3.43134214,22.9064573 C1.53942703,22.9064573 2.06921549e-15,24.4973089 2.06921549e-15,26.4532287 C2.06921549e-15,28.4091484 1.53942703,30 3.43134214,30 C5.32325725,30 6.86268429,28.4091484 6.86268429,26.4532287 C6.86268429,26.1204893 6.81498307,25.7996099 6.73169524,25.4940219 L10.5064978,22.8280736 C11.0813585,23.277064 11.794314,23.5467713 12.5686579,23.5467713 C14.460573,23.5467713 16,21.9559197 16,20 C16,18.0440803 14.460573,16.4532287 12.5686579,16.4532287 Z" id="Path" fill="#018BFF"></path>
        </g>
        <g id="Neo4j-icon-color" transform="translate(95.000000, 498.000000)" fill-rule="nonzero">
            <path d="M21.4998218,0 C15.2170943,0 11,3.52056234 11,10.3551298 L11,15.2252601 C11.6170706,14.9418657 12.3045854,14.7784723 13.0326087,14.7784723 C13.7696603,14.7784723 14.4651936,14.9458677 15.0880257,15.2358938 L15.0880257,10.3551298 C15.0880257,5.9229831 17.627168,3.64479394 21.4998218,3.64479394 C25.372832,3.64479394 27.9119743,5.9229831 27.9119743,10.3551298 L27.9119743,21 L32,21 L32,10.3551298 C32,3.47939955 27.7828463,0 21.4998218,0 Z" id="Path" fill="#000000"></path>
            <path d="M12.5686579,16.4532287 C11.7942558,16.4532287 11.0813585,16.722936 10.5064978,17.1719264 L6.73169524,14.5059781 C6.81498307,14.2003901 6.86268429,13.8795107 6.86268429,13.5467713 C6.86268429,11.5912128 5.32325725,10 3.43134214,10 C1.53942703,10 0,11.5912128 0,13.5467713 C0,15.5026911 1.53942703,17.0935427 3.43134214,17.0935427 C4.20574424,17.0935427 4.91864148,16.8238354 5.49350224,16.374845 L9.26830476,19.0407932 C9.18501693,19.3463812 9.13731571,19.6672607 9.13731571,20 C9.13731571,20.3327393 9.18501693,20.6536188 9.26830476,20.9592068 L5.49350224,23.625155 C4.91864148,23.1761646 4.20574424,22.9064573 3.43134214,22.9064573 C1.53942703,22.9064573 2.06921549e-15,24.4973089 2.06921549e-15,26.4532287 C2.06921549e-15,28.4091484 1.53942703,30 3.43134214,30 C5.32325725,30 6.86268429,28.4091484 6.86268429,26.4532287 C6.86268429,26.1204893 6.81498307,25.7996099 6.73169524,25.4940219 L10.5064978,22.8280736 C11.0813585,23.277064 11.794314,23.5467713 12.5686579,23.5467713 C14.460573,23.5467713 16,21.9559197 16,20 C16,18.0440803 14.460573,16.4532287 12.5686579,16.4532287 Z" id="Path" fill="#018BFF"></path>
        </g>
    </g>
</svg>