<?xml version="1.0" encoding="UTF-8" standalone="no"?>
<!DOCTYPE svg PUBLIC "-//W3C//DTD SVG 1.1//EN"
 "http://www.w3.org/Graphics/SVG/1.1/DTD/svg11.dtd">
<!-- Generated by graphviz version 2.44.0 ()
 -->
<!-- Title: L Pages: 1 -->
<svg width="532pt" height="150pt"
 viewBox="0.00 0.00 531.50 150.00" xmlns="http://www.w3.org/2000/svg" xmlns:xlink="http://www.w3.org/1999/xlink">
<g id="graph0" class="graph" transform="scale(1 1) rotate(0) translate(4 146)">
<title>L</title>
<polygon fill="white" stroke="transparent" points="-4,4 -4,-146 527.5,-146 527.5,4 -4,4"/>
<!-- N0 -->
<g id="node1" class="node">
<title>N0</title>
<path fill="none" stroke="black" d="M55,-105.5C55,-105.5 176,-105.5 176,-105.5 182,-105.5 188,-111.5 188,-117.5 188,-117.5 188,-129.5 188,-129.5 188,-135.5 182,-141.5 176,-141.5 176,-141.5 55,-141.5 55,-141.5 49,-141.5 43,-135.5 43,-129.5 43,-129.5 43,-117.5 43,-117.5 43,-111.5 49,-105.5 55,-105.5"/>
<text text-anchor="start" x="51" y="-119.8" font-family="Times,serif" font-size="14.00">name = &#39;Keanu Reeves&#39;</text>
</g>
<!-- N3 -->
<g id="node2" class="node">
<title>N3</title>
<path fill="none" stroke="black" d="M156.5,-0.5C156.5,-0.5 308.5,-0.5 308.5,-0.5 314.5,-0.5 320.5,-6.5 320.5,-12.5 320.5,-12.5 320.5,-26.5 320.5,-26.5 320.5,-32.5 314.5,-38.5 308.5,-38.5 308.5,-38.5 156.5,-38.5 156.5,-38.5 150.5,-38.5 144.5,-32.5 144.5,-26.5 144.5,-26.5 144.5,-12.5 144.5,-12.5 144.5,-6.5 150.5,-0.5 156.5,-0.5"/>
<text text-anchor="start" x="152.5" y="-23.3" font-family="Times,serif" font-size="14.00">title = &#39;The Matrix Reloaded&#39;</text>
<text text-anchor="start" x="152.5" y="-8.3" font-family="Times,serif" font-size="14.00">year = 2003</text>
</g>
<!-- N0&#45;&gt;N3 -->
<g id="edge1" class="edge">
<title>N0&#45;&gt;N3</title>
<path fill="none" stroke="#2e3436" d="M125.44,-105.26C134.31,-90.99 148.35,-70.89 164.5,-57 170.09,-52.19 176.41,-47.77 182.9,-43.78"/>
<polygon fill="#2e3436" stroke="#2e3436" points="184.9,-46.67 191.79,-38.62 181.39,-40.61 184.9,-46.67"/>
<text text-anchor="middle" x="202" y="-75.8" font-family="Times,serif" font-size="14.00" fill="#2e3436">ACTS_IN</text>
<text text-anchor="start" x="164.5" y="-60.8" font-family="Times,serif" font-size="14.00" fill="#2e3436">name = &#39;Neo&#39;</text>
</g>
<!-- N2 -->
<g id="node3" class="node">
<title>N2</title>
<path fill="none" stroke="black" d="M12,-0.5C12,-0.5 109,-0.5 109,-0.5 115,-0.5 121,-6.5 121,-12.5 121,-12.5 121,-26.5 121,-26.5 121,-32.5 115,-38.5 109,-38.5 109,-38.5 12,-38.5 12,-38.5 6,-38.5 0,-32.5 0,-26.5 0,-26.5 0,-12.5 0,-12.5 0,-6.5 6,-0.5 12,-0.5"/>
<text text-anchor="start" x="8" y="-23.3" font-family="Times,serif" font-size="14.00">title = &#39;The Matrix&#39;</text>
<text text-anchor="start" x="8" y="-8.3" font-family="Times,serif" font-size="14.00">year = 1999</text>
</g>
<!-- N0&#45;&gt;N2 -->
<g id="edge2" class="edge">
<title>N0&#45;&gt;N2</title>
<path fill="none" stroke="#2e3436" d="M78.76,-105.42C71.86,-100.48 65.55,-94.38 61.5,-87 55.22,-75.57 54.29,-61.29 55.21,-48.89"/>
<polygon fill="#2e3436" stroke="#2e3436" points="58.73,-48.93 56.4,-38.6 51.77,-48.13 58.73,-48.93"/>
<text text-anchor="middle" x="99" y="-75.8" font-family="Times,serif" font-size="14.00" fill="#2e3436">ACTS_IN</text>
<text text-anchor="start" x="61.5" y="-60.8" font-family="Times,serif" font-size="14.00" fill="#2e3436">name = &#39;Neo&#39;</text>
</g>
<!-- N1 -->
<g id="node4" class="node">
<title>N1</title>
<path fill="none" stroke="black" d="M231.5,-105.5C231.5,-105.5 365.5,-105.5 365.5,-105.5 371.5,-105.5 377.5,-111.5 377.5,-117.5 377.5,-117.5 377.5,-129.5 377.5,-129.5 377.5,-135.5 371.5,-141.5 365.5,-141.5 365.5,-141.5 231.5,-141.5 231.5,-141.5 225.5,-141.5 219.5,-135.5 219.5,-129.5 219.5,-129.5 219.5,-117.5 219.5,-117.5 219.5,-111.5 225.5,-105.5 231.5,-105.5"/>
<text text-anchor="start" x="227.5" y="-119.8" font-family="Times,serif" font-size="14.00">name = &#39;Monica Bellucci&#39;</text>
</g>
<!-- N1&#45;&gt;N3 -->
<g id="edge4" class="edge">
<title>N1&#45;&gt;N3</title>
<path fill="none" stroke="#2e3436" d="M274.82,-105.48C268.56,-100.12 262.24,-93.8 257.5,-87 249.46,-75.46 243.62,-61 239.62,-48.51"/>
<polygon fill="#2e3436" stroke="#2e3436" points="242.88,-47.19 236.68,-38.6 236.17,-49.18 242.88,-47.19"/>
<text text-anchor="middle" x="314.5" y="-75.8" font-family="Times,serif" font-size="14.00" fill="#2e3436">ACTS_IN</text>
<text text-anchor="start" x="257.5" y="-60.8" font-family="Times,serif" font-size="14.00" fill="#2e3436">name = &#39;Persephone&#39;</text>
</g>
<!-- N4 -->
<g id="node5" class="node">
<title>N4</title>
<path fill="none" stroke="black" d="M355.5,-0.5C355.5,-0.5 431.5,-0.5 431.5,-0.5 437.5,-0.5 443.5,-6.5 443.5,-12.5 443.5,-12.5 443.5,-26.5 443.5,-26.5 443.5,-32.5 437.5,-38.5 431.5,-38.5 431.5,-38.5 355.5,-38.5 355.5,-38.5 349.5,-38.5 343.5,-32.5 343.5,-26.5 343.5,-26.5 343.5,-12.5 343.5,-12.5 343.5,-6.5 349.5,-0.5 355.5,-0.5"/>
<text text-anchor="start" x="351.5" y="-23.3" font-family="Times,serif" font-size="14.00">title = &#39;Malèna&#39;</text>
<text text-anchor="start" x="351.5" y="-8.3" font-family="Times,serif" font-size="14.00">year = 2000</text>
</g>
<!-- N1&#45;&gt;N4 -->
<g id="edge3" class="edge">
<title>N1&#45;&gt;N4</title>
<path fill="none" stroke="#2e3436" d="M347.45,-105.47C356.36,-100.61 364.91,-94.53 371.5,-87 380.85,-76.31 386.25,-61.54 389.35,-48.63"/>
<polygon fill="#2e3436" stroke="#2e3436" points="392.79,-49.29 391.39,-38.79 385.94,-47.87 392.79,-49.29"/>
<text text-anchor="middle" x="455" y="-75.8" font-family="Times,serif" font-size="14.00" fill="#2e3436">ACTS_IN</text>
<text text-anchor="start" x="386.5" y="-60.8" font-family="Times,serif" font-size="14.00" fill="#2e3436">name = &#39;Malèna Scordia&#39;</text>
</g>
</g>
</svg>
