<?xml version="1.0" encoding="UTF-8" standalone="no"?>
<!DOCTYPE svg PUBLIC "-//W3C//DTD SVG 1.1//EN"
 "http://www.w3.org/Graphics/SVG/1.1/DTD/svg11.dtd">
<!-- Generated by graphviz version 2.44.0 ()
 -->
<!-- Title: L Pages: 1 -->
<svg width="849pt" height="378pt"
 viewBox="0.00 0.00 848.50 378.00" xmlns="http://www.w3.org/2000/svg" xmlns:xlink="http://www.w3.org/1999/xlink">
<g id="graph0" class="graph" transform="scale(1 1) rotate(0) translate(4 374)">
<title>L</title>
<polygon fill="white" stroke="transparent" points="-4,4 -4,-374 844.5,-374 844.5,4 -4,4"/>
<!-- Traversal Description -->
<g id="node1" class="node">
<title>Traversal Description</title>
<path fill="#a8e270" stroke="black" d="M529.5,-210C529.5,-210 419.5,-210 419.5,-210 413.5,-210 407.5,-204 407.5,-198 407.5,-198 407.5,-186 407.5,-186 407.5,-180 413.5,-174 419.5,-174 419.5,-174 529.5,-174 529.5,-174 535.5,-174 541.5,-180 541.5,-186 541.5,-186 541.5,-198 541.5,-198 541.5,-204 535.5,-210 529.5,-210"/>
<text text-anchor="middle" x="474.5" y="-188.3" font-family="Times,serif" font-size="14.00">Traversal Description</text>
</g>
<!-- Traverser -->
<g id="node16" class="node">
<title>Traverser</title>
<path fill="#95bbe3" stroke="black" d="M496.5,-123C496.5,-123 452.5,-123 452.5,-123 446.5,-123 440.5,-117 440.5,-111 440.5,-111 440.5,-99 440.5,-99 440.5,-93 446.5,-87 452.5,-87 452.5,-87 496.5,-87 496.5,-87 502.5,-87 508.5,-93 508.5,-99 508.5,-99 508.5,-111 508.5,-111 508.5,-117 502.5,-123 496.5,-123"/>
<text text-anchor="middle" x="474.5" y="-101.3" font-family="Times,serif" font-size="14.00">Traverser</text>
</g>
<!-- Traversal Description&#45;&gt;Traverser -->
<g id="edge15" class="edge">
<title>Traversal Description&#45;&gt;Traverser</title>
<path fill="none" stroke="black" d="M474.5,-163.73C474.5,-150.42 474.5,-134.81 474.5,-123.18"/>
<polygon fill="black" stroke="black" points="471,-163.8 474.5,-173.8 478,-163.8 471,-163.8"/>
<text text-anchor="middle" x="494" y="-144.8" font-family="Times,serif" font-size="14.00">applies</text>
</g>
<!-- Uniqueness -->
<g id="node2" class="node">
<title>Uniqueness</title>
<path fill="none" stroke="black" d="M550.5,-297C550.5,-297 494.5,-297 494.5,-297 488.5,-297 482.5,-291 482.5,-285 482.5,-285 482.5,-273 482.5,-273 482.5,-267 488.5,-261 494.5,-261 494.5,-261 550.5,-261 550.5,-261 556.5,-261 562.5,-267 562.5,-273 562.5,-273 562.5,-285 562.5,-285 562.5,-291 556.5,-297 550.5,-297"/>
<text text-anchor="middle" x="522.5" y="-275.3" font-family="Times,serif" font-size="14.00">Uniqueness</text>
</g>
<!-- Uniqueness&#45;&gt;Traversal Description -->
<g id="edge1" class="edge">
<title>Uniqueness&#45;&gt;Traversal Description</title>
<path fill="none" stroke="black" d="M512.79,-260.8C506.02,-248.82 496.87,-232.62 489.21,-219.06"/>
<polygon fill="black" stroke="black" points="492.16,-217.16 484.2,-210.18 486.07,-220.6 492.16,-217.16"/>
<text text-anchor="middle" x="545.5" y="-231.8" font-family="Times,serif" font-size="14.00">avoid duplicates</text>
</g>
<!-- Evaluator -->
<g id="node3" class="node">
<title>Evaluator</title>
<path fill="none" stroke="black" d="M321.5,-297C321.5,-297 277.5,-297 277.5,-297 271.5,-297 265.5,-291 265.5,-285 265.5,-285 265.5,-273 265.5,-273 265.5,-267 271.5,-261 277.5,-261 277.5,-261 321.5,-261 321.5,-261 327.5,-261 333.5,-267 333.5,-273 333.5,-273 333.5,-285 333.5,-285 333.5,-291 327.5,-297 321.5,-297"/>
<text text-anchor="middle" x="299.5" y="-275.3" font-family="Times,serif" font-size="14.00">Evaluator</text>
</g>
<!-- Evaluator&#45;&gt;Traversal Description -->
<g id="edge2" class="edge">
<title>Evaluator&#45;&gt;Traversal Description</title>
<path fill="none" stroke="black" d="M318.2,-260.78C330.58,-250.13 347.59,-236.84 364.5,-228 375.11,-222.45 386.77,-217.58 398.4,-213.38"/>
<polygon fill="black" stroke="black" points="399.83,-216.59 408.14,-210.01 397.54,-209.98 399.83,-216.59"/>
<text text-anchor="middle" x="428.5" y="-231.8" font-family="Times,serif" font-size="14.00">return and prune policy</text>
</g>
<!-- Prune/Continue -->
<g id="node15" class="node">
<title>Prune/Continue</title>
<text text-anchor="middle" x="299.5" y="-188.3" font-family="Times,serif" font-size="14.00">Prune/Continue</text>
</g>
<!-- Evaluator&#45;&gt;Prune/Continue -->
<g id="edge14" class="edge">
<title>Evaluator&#45;&gt;Prune/Continue</title>
<path fill="none" stroke="black" d="M299.5,-260.8C299.5,-249.16 299.5,-233.55 299.5,-220.24"/>
<polygon fill="black" stroke="black" points="303,-220.18 299.5,-210.18 296,-220.18 303,-220.18"/>
</g>
<!-- Order -->
<g id="node4" class="node">
<title>Order</title>
<path fill="none" stroke="black" d="M156.5,-297C156.5,-297 126.5,-297 126.5,-297 120.5,-297 114.5,-291 114.5,-285 114.5,-285 114.5,-273 114.5,-273 114.5,-267 120.5,-261 126.5,-261 126.5,-261 156.5,-261 156.5,-261 162.5,-261 168.5,-267 168.5,-273 168.5,-273 168.5,-285 168.5,-285 168.5,-291 162.5,-297 156.5,-297"/>
<text text-anchor="middle" x="141.5" y="-275.3" font-family="Times,serif" font-size="14.00">Order</text>
</g>
<!-- Order&#45;&gt;Traversal Description -->
<g id="edge3" class="edge">
<title>Order&#45;&gt;Traversal Description</title>
<path fill="none" stroke="black" d="M168.68,-262.34C189.37,-251.09 218.9,-236.49 246.5,-228 250.2,-226.86 332.46,-214.35 397.12,-204.61"/>
<polygon fill="black" stroke="black" points="397.97,-208.02 407.33,-203.07 396.92,-201.1 397.97,-208.02"/>
<text text-anchor="middle" x="292.5" y="-231.8" font-family="Times,serif" font-size="14.00">where to go next</text>
</g>
<!-- PathExpander -->
<g id="node5" class="node">
<title>PathExpander</title>
<path fill="none" stroke="black" d="M816.5,-297C816.5,-297 748.5,-297 748.5,-297 742.5,-297 736.5,-291 736.5,-285 736.5,-285 736.5,-273 736.5,-273 736.5,-267 742.5,-261 748.5,-261 748.5,-261 816.5,-261 816.5,-261 822.5,-261 828.5,-267 828.5,-273 828.5,-273 828.5,-285 828.5,-285 828.5,-291 822.5,-297 816.5,-297"/>
<text text-anchor="middle" x="782.5" y="-275.3" font-family="Times,serif" font-size="14.00">PathExpander</text>
</g>
<!-- PathExpander&#45;&gt;Traversal Description -->
<g id="edge4" class="edge">
<title>PathExpander&#45;&gt;Traversal Description</title>
<path fill="none" stroke="black" d="M736.39,-265.27C686.1,-251.4 604.97,-229.01 546.32,-212.82"/>
<polygon fill="black" stroke="black" points="546.95,-209.36 536.38,-210.08 545.09,-216.11 546.95,-209.36"/>
<text text-anchor="middle" x="691" y="-231.8" font-family="Times,serif" font-size="14.00">what to traverse</text>
</g>
<!-- Relationship Type -->
<g id="node8" class="node">
<title>Relationship Type</title>
<text text-anchor="middle" x="782.5" y="-188.3" font-family="Times,serif" font-size="14.00">Relationship Type</text>
</g>
<!-- PathExpander&#45;&gt;Relationship Type -->
<g id="edge7" class="edge">
<title>PathExpander&#45;&gt;Relationship Type</title>
<path fill="none" stroke="black" d="M782.5,-260.8C782.5,-249.16 782.5,-233.55 782.5,-220.24"/>
<polygon fill="black" stroke="black" points="786,-220.18 782.5,-210.18 779,-220.18 786,-220.18"/>
</g>
<!-- Depth First -->
<g id="node6" class="node">
<title>Depth First</title>
<text text-anchor="middle" x="39.5" y="-348.3" font-family="Times,serif" font-size="14.00">Depth First</text>
</g>
<!-- Depth First&#45;&gt;Order -->
<g id="edge5" class="edge">
<title>Depth First&#45;&gt;Order</title>
<path fill="none" stroke="black" d="M72.17,-328.26C86.69,-318.15 103.49,-306.46 116.91,-297.11"/>
<polygon fill="black" stroke="black" points="70.14,-325.41 63.93,-333.99 74.14,-331.15 70.14,-325.41"/>
</g>
<!-- Breadth First -->
<g id="node7" class="node">
<title>Breadth First</title>
<text text-anchor="middle" x="141.5" y="-348.3" font-family="Times,serif" font-size="14.00">Breadth First</text>
</g>
<!-- Breadth First&#45;&gt;Order -->
<g id="edge6" class="edge">
<title>Breadth First&#45;&gt;Order</title>
<path fill="none" stroke="black" d="M141.5,-323.75C141.5,-314.77 141.5,-305.03 141.5,-297.03"/>
<polygon fill="black" stroke="black" points="138,-323.81 141.5,-333.81 145,-323.81 138,-323.81"/>
</g>
<!-- Direction -->
<g id="node9" class="node">
<title>Direction</title>
<text text-anchor="middle" x="805.5" y="-348.3" font-family="Times,serif" font-size="14.00">Direction</text>
</g>
<!-- Direction&#45;&gt;PathExpander -->
<g id="edge8" class="edge">
<title>Direction&#45;&gt;PathExpander</title>
<path fill="none" stroke="black" d="M796.77,-324.05C793.83,-314.98 790.64,-305.12 788.02,-297.03"/>
<polygon fill="black" stroke="black" points="793.52,-325.38 799.93,-333.81 800.18,-323.22 793.52,-325.38"/>
</g>
<!-- Unique Nodes -->
<g id="node10" class="node">
<title>Unique Nodes</title>
<text text-anchor="middle" x="705.5" y="-348.3" font-family="Times,serif" font-size="14.00">Unique Nodes</text>
</g>
<!-- Unique Nodes&#45;&gt;Uniqueness -->
<g id="edge9" class="edge">
<title>Unique Nodes&#45;&gt;Uniqueness</title>
<path fill="none" stroke="black" d="M652.21,-330.32C623.57,-319.21 588.85,-305.74 562.54,-295.53"/>
<polygon fill="black" stroke="black" points="651.08,-333.64 661.67,-333.99 653.61,-327.11 651.08,-333.64"/>
</g>
<!-- Unique Relationships -->
<g id="node11" class="node">
<title>Unique Relationships</title>
<text text-anchor="middle" x="393.5" y="-348.3" font-family="Times,serif" font-size="14.00">Unique Relationships</text>
</g>
<!-- Unique Relationships&#45;&gt;Uniqueness -->
<g id="edge10" class="edge">
<title>Unique Relationships&#45;&gt;Uniqueness</title>
<path fill="none" stroke="black" d="M433.28,-329.1C451.98,-318.81 473.95,-306.72 491.41,-297.11"/>
<polygon fill="black" stroke="black" points="431.47,-326.11 424.4,-333.99 434.85,-332.24 431.47,-326.11"/>
</g>
<!-- Unique Paths -->
<g id="node12" class="node">
<title>Unique Paths</title>
<text text-anchor="middle" x="522.5" y="-348.3" font-family="Times,serif" font-size="14.00">Unique Paths</text>
</g>
<!-- Unique Paths&#45;&gt;Uniqueness -->
<g id="edge11" class="edge">
<title>Unique Paths&#45;&gt;Uniqueness</title>
<path fill="none" stroke="black" d="M522.5,-323.75C522.5,-314.77 522.5,-305.03 522.5,-297.03"/>
<polygon fill="black" stroke="black" points="519,-323.81 522.5,-333.81 526,-323.81 519,-323.81"/>
</g>
<!-- None -->
<g id="node13" class="node">
<title>None</title>
<text text-anchor="middle" x="612.5" y="-348.3" font-family="Times,serif" font-size="14.00">None</text>
</g>
<!-- None&#45;&gt;Uniqueness -->
<g id="edge12" class="edge">
<title>None&#45;&gt;Uniqueness</title>
<path fill="none" stroke="black" d="M582.73,-327.51C570.1,-317.55 555.66,-306.16 544.09,-297.03"/>
<polygon fill="black" stroke="black" points="580.69,-330.37 590.71,-333.81 585.03,-324.87 580.69,-330.37"/>
</g>
<!-- Include/Exclude -->
<g id="node14" class="node">
<title>Include/Exclude</title>
<text text-anchor="middle" x="256.5" y="-348.3" font-family="Times,serif" font-size="14.00">Include/Exclude</text>
</g>
<!-- Include/Exclude&#45;&gt;Evaluator -->
<g id="edge13" class="edge">
<title>Include/Exclude&#45;&gt;Evaluator</title>
<path fill="none" stroke="black" d="M272.12,-325.21C277.8,-315.83 284.08,-305.46 289.19,-297.03"/>
<polygon fill="black" stroke="black" points="269.1,-323.45 266.91,-333.81 275.08,-327.07 269.1,-323.45"/>
</g>
<!-- Paths -->
<g id="node18" class="node">
<title>Paths</title>
<path fill="none" stroke="black" d="M417.5,-36C417.5,-36 387.5,-36 387.5,-36 381.5,-36 375.5,-30 375.5,-24 375.5,-24 375.5,-12 375.5,-12 375.5,-6 381.5,0 387.5,0 387.5,0 417.5,0 417.5,0 423.5,0 429.5,-6 429.5,-12 429.5,-12 429.5,-24 429.5,-24 429.5,-30 423.5,-36 417.5,-36"/>
<text text-anchor="middle" x="402.5" y="-14.3" font-family="Times,serif" font-size="14.00">Paths</text>
</g>
<!-- Traverser&#45;&gt;Paths -->
<g id="edge17" class="edge">
<title>Traverser&#45;&gt;Paths</title>
<path fill="none" stroke="black" d="M445.44,-87C438.29,-81.86 431.1,-75.77 425.5,-69 419.87,-62.19 415.31,-53.79 411.78,-45.82"/>
<polygon fill="black" stroke="black" points="414.98,-44.41 407.98,-36.46 408.5,-47.04 414.98,-44.41"/>
<text text-anchor="middle" x="448" y="-57.8" font-family="Times,serif" font-size="14.00">result as</text>
</g>
<!-- Nodes -->
<g id="node19" class="node">
<title>Nodes</title>
<path fill="none" stroke="black" d="M489.5,-36C489.5,-36 459.5,-36 459.5,-36 453.5,-36 447.5,-30 447.5,-24 447.5,-24 447.5,-12 447.5,-12 447.5,-6 453.5,0 459.5,0 459.5,0 489.5,0 489.5,0 495.5,0 501.5,-6 501.5,-12 501.5,-12 501.5,-24 501.5,-24 501.5,-30 495.5,-36 489.5,-36"/>
<text text-anchor="middle" x="474.5" y="-14.3" font-family="Times,serif" font-size="14.00">Nodes</text>
</g>
<!-- Traverser&#45;&gt;Nodes -->
<g id="edge18" class="edge">
<title>Traverser&#45;&gt;Nodes</title>
<path fill="none" stroke="black" d="M474.5,-86.8C474.5,-75.16 474.5,-59.55 474.5,-46.24"/>
<polygon fill="black" stroke="black" points="478,-46.18 474.5,-36.18 471,-46.18 478,-46.18"/>
<text text-anchor="middle" x="497" y="-57.8" font-family="Times,serif" font-size="14.00">result as</text>
</g>
<!-- Relationships -->
<g id="node20" class="node">
<title>Relationships</title>
<path fill="none" stroke="black" d="M597,-36C597,-36 532,-36 532,-36 526,-36 520,-30 520,-24 520,-24 520,-12 520,-12 520,-6 526,0 532,0 532,0 597,0 597,0 603,0 609,-6 609,-12 609,-12 609,-24 609,-24 609,-30 603,-36 597,-36"/>
<text text-anchor="middle" x="564.5" y="-14.3" font-family="Times,serif" font-size="14.00">Relationships</text>
</g>
<!-- Traverser&#45;&gt;Relationships -->
<g id="edge19" class="edge">
<title>Traverser&#45;&gt;Relationships</title>
<path fill="none" stroke="black" d="M501.18,-86.86C508.71,-81.52 516.71,-75.36 523.5,-69 531.49,-61.52 539.34,-52.49 546,-44.17"/>
<polygon fill="black" stroke="black" points="548.85,-46.21 552.23,-36.17 543.32,-41.91 548.85,-46.21"/>
<text text-anchor="middle" x="560" y="-57.8" font-family="Times,serif" font-size="14.00">result as</text>
</g>
<!-- A Node -->
<g id="node17" class="node">
<title>A Node</title>
<path fill="#a8e270" stroke="black" d="M322.5,-123C322.5,-123 286.5,-123 286.5,-123 280.5,-123 274.5,-117 274.5,-111 274.5,-111 274.5,-99 274.5,-99 274.5,-93 280.5,-87 286.5,-87 286.5,-87 322.5,-87 322.5,-87 328.5,-87 334.5,-93 334.5,-99 334.5,-99 334.5,-111 334.5,-111 334.5,-117 328.5,-123 322.5,-123"/>
<text text-anchor="middle" x="304.5" y="-101.3" font-family="Times,serif" font-size="14.00">A Node</text>
</g>
<!-- A Node&#45;&gt;Traverser -->
<g id="edge16" class="edge">
<title>A Node&#45;&gt;Traverser</title>
<path fill="none" stroke="black" d="M334.5,-105C361.02,-105 400.05,-105 430.17,-105"/>
<polygon fill="black" stroke="black" points="430.42,-108.5 440.42,-105 430.42,-101.5 430.42,-108.5"/>
<text text-anchor="middle" x="387.5" y="-111.8" font-family="Times,serif" font-size="14.00">starting point of</text>
</g>
</g>
</svg>
