<?xml version="1.0" encoding="UTF-8"?>
<svg width="627px" height="249px" viewBox="0 0 627 249" version="1.1" xmlns="http://www.w3.org/2000/svg" xmlns:xlink="http://www.w3.org/1999/xlink">
    <!-- Generator: Sketch 53.2 (72643) - https://sketchapp.com -->
    <title>graphalgo-astar</title>
    <desc>Created with Sketch.</desc>
    <g id="graphalgo-astar" stroke="none" stroke-width="1" fill="none" fill-rule="evenodd">
        <g id="Group-55" transform="translate(5.000000, 5.000000)">
            <g id="Group-50" transform="translate(11.000000, 142.000000)">
                <rect id="Rectangle-32" stroke="#008CC2" fill="#D8D8D8" x="0.5" y="0.5" width="160" height="85"></rect>
                <text id="name:-A-x:-0.0-y:-0." font-family="OpenSans-Regular, Open Sans" font-size="12" font-weight="normal" fill="#333333">
                    <tspan x="81" y="28">name: A</tspan>
                    <tspan x="81" y="45">x: 0.0</tspan>
                    <tspan x="81" y="62">y: 0.0</tspan>
                </text>
                <g id="Neo4j-icon-color" transform="translate(17.000000, 23.000000)" fill-rule="nonzero">
                    <path d="M30.9997454,0 C22.0244205,0 16,5.1970206 16,15.286144 L16,22.475384 C16.8815294,22.0570399 17.8636934,21.8158401 18.9037267,21.8158401 C19.9566575,21.8158401 20.9502766,22.0629475 21.8400367,22.4910814 L21.8400367,15.286144 C21.8400367,8.74345125 25.4673828,5.3804101 30.9997454,5.3804101 C36.5326172,5.3804101 40.1599633,8.74345125 40.1599633,15.286144 L40.1599633,31 L46,31 L46,15.286144 C46,5.13625647 39.9754947,0 30.9997454,0 Z" id="Path" fill="#000000"></path>
                    <path d="M18.0674457,24.0345201 C16.9542427,24.0345201 15.9294529,24.4121103 15.1030905,25.0406969 L9.67681191,21.3083694 C9.79653817,20.8805462 9.86510866,20.4313149 9.86510866,19.9654799 C9.86510866,17.227698 7.6521823,15 4.93255433,15 C2.21292636,15 0,17.227698 0,19.9654799 C0,22.7037675 2.21292636,24.9309597 4.93255433,24.9309597 C6.04575734,24.9309597 7.07054712,24.5533695 7.89690947,23.924783 L13.3231881,27.6571105 C13.2034618,28.0849337 13.1348913,28.5341649 13.1348913,29 C13.1348913,29.4658351 13.2034618,29.9150663 13.3231881,30.3428895 L7.89690947,34.075217 C7.07054712,33.4466305 6.04575734,33.0690403 4.93255433,33.0690403 C2.21292636,33.0690403 2.97449727e-15,35.2962325 2.97449727e-15,38.0345201 C2.97449727e-15,40.7728077 2.21292636,43 4.93255433,43 C7.6521823,43 9.86510866,40.7728077 9.86510866,38.0345201 C9.86510866,37.5686851 9.79653817,37.1194538 9.67681191,36.6916306 L15.1030905,32.9593031 C15.9294529,33.5878897 16.9543264,33.9654799 18.0674457,33.9654799 C20.7870736,33.9654799 23,31.7382876 23,29 C23,26.2617124 20.7870736,24.0345201 18.0674457,24.0345201 Z" id="Path" fill="#018BFF"></path>
                </g>
            </g>
            <g id="Group-51" transform="translate(216.000000, 11.000000)">
                <rect id="Rectangle-32" fill="#D8D8D8" x="0" y="0" width="161" height="86"></rect>
                <text id="name:-C-x:-2.0-y:-1." font-family="OpenSans-Regular, Open Sans" font-size="12" font-weight="normal" fill="#333333">
                    <tspan x="81" y="28">name: C</tspan>
                    <tspan x="81" y="45">x: 2.0</tspan>
                    <tspan x="81" y="62">y: 1.0</tspan>
                </text>
            </g>
            <polygon id="Rectangle-32" fill="#D8D8D8" points="451 148 606 148 606 228 451 228"></polygon>
            <g id="Neo4j-icon-color" transform="translate(465.000000, 166.000000)" fill-rule="nonzero">
                <path d="M30.9997454,0 C22.0244205,0 16,5.1970206 16,15.286144 L16,22.475384 C16.8815294,22.0570399 17.8636934,21.8158401 18.9037267,21.8158401 C19.9566575,21.8158401 20.9502766,22.0629475 21.8400367,22.4910814 L21.8400367,15.286144 C21.8400367,8.74345125 25.4673828,5.3804101 30.9997454,5.3804101 C36.5326172,5.3804101 40.1599633,8.74345125 40.1599633,15.286144 L40.1599633,31 L46,31 L46,15.286144 C46,5.13625647 39.9754947,0 30.9997454,0 Z" id="Path" fill="#000000"></path>
                <path d="M18.0674457,24.0345201 C16.9542427,24.0345201 15.9294529,24.4121103 15.1030905,25.0406969 L9.67681191,21.3083694 C9.79653817,20.8805462 9.86510866,20.4313149 9.86510866,19.9654799 C9.86510866,17.227698 7.6521823,15 4.93255433,15 C2.21292636,15 0,17.227698 0,19.9654799 C0,22.7037675 2.21292636,24.9309597 4.93255433,24.9309597 C6.04575734,24.9309597 7.07054712,24.5533695 7.89690947,23.924783 L13.3231881,27.6571105 C13.2034618,28.0849337 13.1348913,28.5341649 13.1348913,29 C13.1348913,29.4658351 13.2034618,29.9150663 13.3231881,30.3428895 L7.89690947,34.075217 C7.07054712,33.4466305 6.04575734,33.0690403 4.93255433,33.0690403 C2.21292636,33.0690403 2.97449727e-15,35.2962325 2.97449727e-15,38.0345201 C2.97449727e-15,40.7728077 2.21292636,43 4.93255433,43 C7.6521823,43 9.86510866,40.7728077 9.86510866,38.0345201 C9.86510866,37.5686851 9.79653817,37.1194538 9.67681191,36.6916306 L15.1030905,32.9593031 C15.9294529,33.5878897 16.9543264,33.9654799 18.0674457,33.9654799 C20.7870736,33.9654799 23,31.7382876 23,29 C23,26.2617124 20.7870736,24.0345201 18.0674457,24.0345201 Z" id="Path" fill="#018BFF"></path>
            </g>
            <g id="Neo4j-icon-color" transform="translate(235.000000, 32.000000)" fill-rule="nonzero">
                <path d="M30.9997454,0 C22.0244205,0 16,5.1970206 16,15.286144 L16,22.475384 C16.8815294,22.0570399 17.8636934,21.8158401 18.9037267,21.8158401 C19.9566575,21.8158401 20.9502766,22.0629475 21.8400367,22.4910814 L21.8400367,15.286144 C21.8400367,8.74345125 25.4673828,5.3804101 30.9997454,5.3804101 C36.5326172,5.3804101 40.1599633,8.74345125 40.1599633,15.286144 L40.1599633,31 L46,31 L46,15.286144 C46,5.13625647 39.9754947,0 30.9997454,0 Z" id="Path" fill="#000000"></path>
                <path d="M18.0674457,24.0345201 C16.9542427,24.0345201 15.9294529,24.4121103 15.1030905,25.0406969 L9.67681191,21.3083694 C9.79653817,20.8805462 9.86510866,20.4313149 9.86510866,19.9654799 C9.86510866,17.227698 7.6521823,15 4.93255433,15 C2.21292636,15 0,17.227698 0,19.9654799 C0,22.7037675 2.21292636,24.9309597 4.93255433,24.9309597 C6.04575734,24.9309597 7.07054712,24.5533695 7.89690947,23.924783 L13.3231881,27.6571105 C13.2034618,28.0849337 13.1348913,28.5341649 13.1348913,29 C13.1348913,29.4658351 13.2034618,29.9150663 13.3231881,30.3428895 L7.89690947,34.075217 C7.07054712,33.4466305 6.04575734,33.0690403 4.93255433,33.0690403 C2.21292636,33.0690403 2.97449727e-15,35.2962325 2.97449727e-15,38.0345201 C2.97449727e-15,40.7728077 2.21292636,43 4.93255433,43 C7.6521823,43 9.86510866,40.7728077 9.86510866,38.0345201 C9.86510866,37.5686851 9.79653817,37.1194538 9.67681191,36.6916306 L15.1030905,32.9593031 C15.9294529,33.5878897 16.9543264,33.9654799 18.0674457,33.9654799 C20.7870736,33.9654799 23,31.7382876 23,29 C23,26.2617124 20.7870736,24.0345201 18.0674457,24.0345201 Z" id="Path" fill="#018BFF"></path>
            </g>
            <text id="name:-B-x:-7.0-y:-0." font-family="OpenSans-Regular, Open Sans" font-size="12" font-weight="normal" fill="#333333">
                <tspan x="528" y="173">name: B</tspan>
                <tspan x="528" y="190">x: 7.0</tspan>
                <tspan x="528" y="207">y: 0.0</tspan>
            </text>
            <rect id="Rectangle-33" stroke="#979797" x="0.5" y="0.5" width="616" height="238"></rect>
            <g id="Group-52" transform="translate(184.000000, 183.000000)">
                <path d="M0.5,5.5 L250.499518,5.00884181" id="Line-15" stroke="#979797" stroke-width="2" stroke-linecap="square"></path>
                <polygon id="Triangle-7" fill="#979797" points="255 5 245 10 245 0"></polygon>
            </g>
            <text id="MY_TYPE-length:-10.0" font-family="OpenSans-Regular, Open Sans" font-size="12" font-weight="normal" fill="#333333">
                <tspan x="272" y="161">MY_TYPE</tspan>
                <tspan x="272" y="178">length: 10.0</tspan>
            </text>
            <text id="MY_TYPE-length:-3.0" font-family="OpenSans-Regular, Open Sans" font-size="12" font-weight="normal" fill="#333333">
                <tspan x="429" y="97">MY_TYPE</tspan>
                <tspan x="429" y="114">length: 3.0</tspan>
            </text>
            <g id="Group-54" transform="translate(174.000000, 96.000000)">
                <polygon id="Triangle-7" fill="#979797" transform="translate(36.681317, 7.375924) rotate(-45.000000) translate(-36.681317, -7.375924) " points="41.6813171 7.37592387 31.6813171 12.3759239 31.6813171 2.37592387"></polygon>
                <path d="M-6.12581309,25.2296889 L43.8741869,25.2296889" id="Line-16" stroke="#979797" stroke-width="2" stroke-linecap="square" transform="translate(18.874187, 25.229689) rotate(-45.000000) translate(-18.874187, -25.229689) "></path>
            </g>
            <g id="Group-53" transform="translate(414.684528, 122.390954) rotate(32.000000) translate(-414.684528, -122.390954) translate(373.684528, 116.890954)">
                <polygon id="Triangle-7" fill="#979797" points="81.1063659 5.47264909 71.1063659 10.4726491 71.1063659 0.472649088"></polygon>
                <path d="M0.5,5.5 L75.5,5.5" id="Line-17" stroke="#979797" stroke-width="2" stroke-linecap="square"></path>
            </g>
            <text id="MY_TYPE-length:-2.0" font-family="OpenSans-Regular, Open Sans" font-size="12" font-weight="normal" fill="#333333">
                <tspan x="122" y="97">MY_TYPE</tspan>
                <tspan x="122" y="114">length: 2.0</tspan>
            </text>
        </g>
    </g>
</svg>