<?xml version="1.0" encoding="UTF-8"?>
<svg width="800px" height="662px" viewBox="0 0 800 662" version="1.1" xmlns="http://www.w3.org/2000/svg" xmlns:xlink="http://www.w3.org/1999/xlink">
    <!-- Generator: Sketch 48.2 (47327) - http://www.bohemiancoding.com/sketch -->
    <title>socnet-model</title>
    <desc>Created with Sketch.</desc>
    <defs></defs>
    <g id="Page-1" stroke="none" stroke-width="1" fill="none" fill-rule="evenodd">
        <g id="socnet-model">
            <g id="Group-59" transform="translate(5.000000, 5.000000)">
                <rect id="Rectangle-34" fill="#BCE9F4" transform="translate(68.566017, 109.566017) rotate(45.000000) translate(-68.566017, -109.566017) " x="31.0660172" y="72.0660172" width="75" height="75"></rect>
                <rect id="Rectangle-35" fill="#FCD5C2" x="222" y="72" width="125" height="75"></rect>
                <ellipse id="Oval-4" fill="#D1EBD4" cx="502.5" cy="108.5" rx="62.5" ry="37.5"></ellipse>
                <text id="Friend" font-family="OpenSans-Regular, Open Sans" font-size="12" font-weight="normal" fill="#333333">
                    <tspan x="51" y="113">Friend</tspan>
                </text>
                <rect id="Rectangle-34" fill="#BCE9F4" transform="translate(285.500000, 288.789062) rotate(45.000000) translate(-285.500000, -288.789062) " x="248" y="251.289062" width="75" height="75"></rect>
                <text id="Status" font-family="OpenSans-Regular, Open Sans" font-size="12" font-weight="normal" fill="#333333">
                    <tspan x="268.466991" y="292.756054">Status</tspan>
                </text>
                <text id="Person" font-family="OpenSans-Regular, Open Sans" font-size="12" font-weight="normal" fill="#333333">
                    <tspan x="265" y="112">Person</tspan>
                </text>
                <rect id="Rectangle-35" fill="#FCD5C2" x="441" y="382" width="125" height="75"></rect>
                <text id="StatusUpdate" font-family="OpenSans-Regular, Open Sans" font-size="12" font-weight="normal" fill="#333333">
                    <tspan x="465" y="423">StatusUpdate</tspan>
                </text>
                <text id="name" font-family="OpenSans-Regular, Open Sans" font-size="12" font-weight="normal" fill="#333333">
                    <tspan x="487" y="113">name</tspan>
                </text>
                <ellipse id="Oval-4" fill="#D1EBD4" cx="402.5" cy="579.5" rx="62.5" ry="37.5"></ellipse>
                <text id="text" font-family="OpenSans-Regular, Open Sans" font-size="12" font-weight="normal" fill="#333333">
                    <tspan x="392" y="584">text</tspan>
                </text>
                <path d="M485.5,116.5 L520.5,116.5" id="Line-18" stroke="#333333" stroke-width="2" stroke-linecap="square"></path>
                <circle id="Oval-3" stroke="#979797" fill="#979797" cx="68.5" cy="162.5" r="3.5"></circle>
                <circle id="Oval-3" stroke="#979797" fill="#979797" cx="68.5" cy="56.5" r="3.5"></circle>
                <circle id="Oval-3" stroke="#979797" fill="#979797" cx="285.5" cy="235.5" r="3.5"></circle>
                <circle id="Oval-3" stroke="#979797" fill="#979797" cx="285.053202" cy="340.909425" r="3.5"></circle>
                <circle id="Oval-3" stroke="#979797" fill="#979797" cx="285.02033" cy="71.4916737" r="3.5"></circle>
                <circle id="Oval-3" stroke="#979797" fill="#979797" cx="222.191401" cy="108.372714" r="3.5"></circle>
                <circle id="Oval-3" stroke="#979797" fill="#979797" cx="285.5" cy="146.5" r="3.5"></circle>
                <circle id="Oval-3" stroke="#979797" fill="#979797" cx="347.019963" cy="108.486074" r="3.5"></circle>
                <circle id="Oval-3" stroke="#979797" fill="#979797" cx="504.068718" cy="382.5" r="3.5"></circle>
                <circle id="Oval-3" stroke="#979797" fill="#979797" cx="441.074951" cy="419.070372" r="3.5"></circle>
                <circle id="Oval-3" stroke="#979797" fill="#979797" cx="401.876075" cy="542.003023" r="3.5"></circle>
                <g id="Group-58" transform="translate(543.564854, 538.072647)">
                    <ellipse id="Oval-4" fill="#D1EBD4" cx="62.5" cy="41.5" rx="62.5" ry="37.5"></ellipse>
                    <text id="date" font-family="OpenSans-Regular, Open Sans" font-size="12" font-weight="normal" fill="#333333">
                        <tspan x="48" y="45">date</tspan>
                    </text>
                    <circle id="Oval-3" stroke="#979797" fill="#979797" cx="62.5" cy="3.5" r="3.5"></circle>
                </g>
                <circle id="Oval-3" stroke="#979797" fill="#979797" cx="504.002283" cy="457.5" r="3.5"></circle>
                <circle id="Oval-3" stroke="#979797" fill="#979797" cx="565.984173" cy="419.081972" r="3.5"></circle>
                <circle id="Oval-3" stroke="#979797" fill="#979797" cx="440.019963" cy="108.486074" r="3.5"></circle>
                <path d="M285.5,146.5 L285.5,235.5" id="Line-19" stroke="#979797" stroke-width="2" stroke-linecap="square"></path>
                <path d="M347.5,108.5 L439.5,108.5" id="Line-20" stroke="#979797" stroke-width="2" stroke-linecap="square"></path>
                <path d="M68.5,161.953956 C68.5,165.374879 68.5,167.716477 68.5,168.978749 C68.5,169.319166 68.5,169.659583 68.5,170 L68.49999,170 C68.49999,172.761424 70.7385662,175 73.49999,175 C73.4999933,175 73.4999967,175 73.5,175 L179.558137,174.999767 C182.319557,174.999762 184.558127,172.761187 184.558127,169.999767 L184.558137,136 L184.558137,113.486074 C184.558137,110.72465 186.796713,108.486074 189.558137,108.486074 L201,108.486074 L222.472546,108.486074" id="Path-9" stroke="#979797" stroke-width="2"></path>
                <path d="M69,56 L69,48 C69,45.2385763 71.2385763,43 74,43 L280,43 C282.761424,43 285,45.2385763 285,48 L285,72" id="Path-10" stroke="#979797" stroke-width="2"></path>
                <path d="M285,341 L285,414 C285,416.761424 287.238576,419 290,419 L441,419" id="Path-11" stroke="#979797" stroke-width="2"></path>
                <g id="Group-57" transform="translate(566.000000, 231.000000)">
                    <g id="Group-56" transform="translate(102.530837, 0.986164)">
                        <rect id="Rectangle-34" fill="#BCE9F4" transform="translate(53.500000, 56.789062) rotate(45.000000) translate(-53.500000, -56.789062) " x="16" y="19.2890625" width="75" height="75"></rect>
                        <text id="next" font-family="OpenSans-Regular, Open Sans" font-size="12" font-weight="normal" fill="#333333">
                            <tspan x="41.4669914" y="59.7560539">next</tspan>
                        </text>
                        <circle id="Oval-3" stroke="#979797" fill="#979797" cx="53.5" cy="3.5" r="3.5"></circle>
                        <circle id="Oval-3" stroke="#979797" fill="#979797" cx="53.5" cy="109.5" r="3.5"></circle>
                    </g>
                    <path d="M0,110 L0,183 C3.38176876e-16,185.761424 2.23857625,188 5,188 L156,188" id="Path-11" stroke="#979797" stroke-width="2" transform="translate(78.000000, 149.000000) scale(-1, 1) translate(-78.000000, -149.000000) "></path>
                </g>
                <path d="M504,382 L504,212 C504,209.238576 506.238576,207 509,207 L717,207 C719.761424,207 722,209.238576 722,212 L722,236" id="Path-12" stroke="#979797" stroke-width="2"></path>
                <path d="M606,457 L606,495 C606,497.761424 603.761424,500 601,500 L509,500 C506.238576,500 504,502.238576 504,505 L504,542" id="Path-13" stroke="#979797" stroke-width="2" transform="translate(555.000000, 499.500000) scale(-1, 1) translate(-555.000000, -499.500000) "></path>
                <rect id="Rectangle-36" stroke="#979797" x="0.5" y="0.5" width="789" height="651"></rect>
                <path d="M504,457 L504,495 C504,497.761424 501.761424,500 499,500 L407,500 C404.238576,500 402,502.238576 402,505 L402,542" id="Path-13" stroke="#979797" stroke-width="2"></path>
            </g>
        </g>
        <g id="Artboard" transform="translate(-23163.000000, -10140.000000)"></g>
    </g>
</svg>