<?xml version="1.0" encoding="UTF-8" standalone="no"?>
<!DOCTYPE svg PUBLIC "-//W3C//DTD SVG 1.1//EN"
 "http://www.w3.org/Graphics/SVG/1.1/DTD/svg11.dtd">
<!-- Generated by graphviz version 2.44.0 ()
 -->
<!-- Title: L Pages: 1 -->
<svg width="230pt" height="479pt"
 viewBox="0.00 0.00 229.50 479.00" xmlns="http://www.w3.org/2000/svg" xmlns:xlink="http://www.w3.org/1999/xlink">
<g id="graph0" class="graph" transform="scale(1 1) rotate(0) translate(4 475)">
<title>L</title>
<polygon fill="white" stroke="transparent" points="-4,4 -4,-475 225.5,-475 225.5,4 -4,4"/>
<!-- N0 -->
<g id="node1" class="node">
<title>N0</title>
<path fill="none" stroke="black" d="M12,-261.5C12,-261.5 74,-261.5 74,-261.5 80,-261.5 86,-267.5 86,-273.5 86,-273.5 86,-295.5 86,-295.5 86,-301.5 80,-307.5 74,-307.5 74,-307.5 12,-307.5 12,-307.5 6,-307.5 0,-301.5 0,-295.5 0,-295.5 0,-273.5 0,-273.5 0,-267.5 6,-261.5 12,-261.5"/>
<text text-anchor="middle" x="43" y="-292.3" font-family="Times,serif" font-size="14.00">Node[0]</text>
<polyline fill="none" stroke="black" points="0,-284.5 86,-284.5 "/>
<text text-anchor="start" x="8" y="-269.3" font-family="Times,serif" font-size="14.00">name = &#39;Joe&#39;</text>
</g>
<!-- N2 -->
<g id="node2" class="node">
<title>N2</title>
<path fill="none" stroke="black" d="M25,-0.5C25,-0.5 93,-0.5 93,-0.5 99,-0.5 105,-6.5 105,-12.5 105,-12.5 105,-34.5 105,-34.5 105,-40.5 99,-46.5 93,-46.5 93,-46.5 25,-46.5 25,-46.5 19,-46.5 13,-40.5 13,-34.5 13,-34.5 13,-12.5 13,-12.5 13,-6.5 19,-0.5 25,-0.5"/>
<text text-anchor="middle" x="59" y="-31.3" font-family="Times,serif" font-size="14.00">Node[2]</text>
<polyline fill="none" stroke="black" points="13,-23.5 105,-23.5 "/>
<text text-anchor="start" x="21" y="-8.3" font-family="Times,serif" font-size="14.00">name = &#39;Sara&#39;</text>
</g>
<!-- N0&#45;&gt;N2 -->
<g id="edge1" class="edge">
<title>N0&#45;&gt;N2</title>
<path fill="none" stroke="#2e3436" d="M44.36,-261.42C47.19,-215.64 53.7,-110.22 57.01,-56.79"/>
<polygon fill="#2e3436" stroke="#2e3436" points="60.52,-56.72 57.64,-46.53 53.53,-56.29 60.52,-56.72"/>
<text text-anchor="middle" x="77" y="-166.8" font-family="Times,serif" font-size="14.00" fill="#2e3436">KNOWS</text>
</g>
<!-- N1 -->
<g id="node3" class="node">
<title>N1</title>
<path fill="none" stroke="black" d="M85,-326.5C85,-326.5 153,-326.5 153,-326.5 159,-326.5 165,-332.5 165,-338.5 165,-338.5 165,-360.5 165,-360.5 165,-366.5 159,-372.5 153,-372.5 153,-372.5 85,-372.5 85,-372.5 79,-372.5 73,-366.5 73,-360.5 73,-360.5 73,-338.5 73,-338.5 73,-332.5 79,-326.5 85,-326.5"/>
<text text-anchor="middle" x="119" y="-357.3" font-family="Times,serif" font-size="14.00">Node[1]</text>
<polyline fill="none" stroke="black" points="73,-349.5 165,-349.5 "/>
<text text-anchor="start" x="81" y="-334.3" font-family="Times,serif" font-size="14.00">name = &#39;Lars&#39;</text>
</g>
<!-- N4 -->
<g id="node4" class="node">
<title>N4</title>
<path fill="none" stroke="black" d="M84.5,-196.5C84.5,-196.5 153.5,-196.5 153.5,-196.5 159.5,-196.5 165.5,-202.5 165.5,-208.5 165.5,-208.5 165.5,-230.5 165.5,-230.5 165.5,-236.5 159.5,-242.5 153.5,-242.5 153.5,-242.5 84.5,-242.5 84.5,-242.5 78.5,-242.5 72.5,-236.5 72.5,-230.5 72.5,-230.5 72.5,-208.5 72.5,-208.5 72.5,-202.5 78.5,-196.5 84.5,-196.5"/>
<text text-anchor="middle" x="119" y="-227.3" font-family="Times,serif" font-size="14.00">Node[4]</text>
<polyline fill="none" stroke="black" points="72.5,-219.5 165.5,-219.5 "/>
<text text-anchor="start" x="80.5" y="-204.3" font-family="Times,serif" font-size="14.00">name = &#39;Dirk&#39;</text>
</g>
<!-- N1&#45;&gt;N4 -->
<g id="edge2" class="edge">
<title>N1&#45;&gt;N4</title>
<path fill="none" stroke="#2e3436" d="M119,-326.5C119,-306.16 119,-275.71 119,-252.65"/>
<polygon fill="#2e3436" stroke="#2e3436" points="122.5,-252.65 119,-242.65 115.5,-252.65 122.5,-252.65"/>
<text text-anchor="middle" x="145" y="-280.8" font-family="Times,serif" font-size="14.00" fill="#2e3436">KNOWS</text>
</g>
<!-- N3 -->
<g id="node5" class="node">
<title>N3</title>
<path fill="none" stroke="black" d="M83.5,-98.5C83.5,-98.5 154.5,-98.5 154.5,-98.5 160.5,-98.5 166.5,-104.5 166.5,-110.5 166.5,-110.5 166.5,-132.5 166.5,-132.5 166.5,-138.5 160.5,-144.5 154.5,-144.5 154.5,-144.5 83.5,-144.5 83.5,-144.5 77.5,-144.5 71.5,-138.5 71.5,-132.5 71.5,-132.5 71.5,-110.5 71.5,-110.5 71.5,-104.5 77.5,-98.5 83.5,-98.5"/>
<text text-anchor="middle" x="119" y="-129.3" font-family="Times,serif" font-size="14.00">Node[3]</text>
<polyline fill="none" stroke="black" points="71.5,-121.5 166.5,-121.5 "/>
<text text-anchor="start" x="79.5" y="-106.3" font-family="Times,serif" font-size="14.00">name = &#39;Peter&#39;</text>
</g>
<!-- N4&#45;&gt;N3 -->
<g id="edge4" class="edge">
<title>N4&#45;&gt;N3</title>
<path fill="none" stroke="#2e3436" d="M119,-196.23C119,-184 119,-168.59 119,-155.03"/>
<polygon fill="#2e3436" stroke="#2e3436" points="122.5,-154.64 119,-144.64 115.5,-154.64 122.5,-154.64"/>
<text text-anchor="middle" x="145" y="-166.8" font-family="Times,serif" font-size="14.00" fill="#2e3436">KNOWS</text>
</g>
<!-- N3&#45;&gt;N2 -->
<g id="edge3" class="edge">
<title>N3&#45;&gt;N2</title>
<path fill="none" stroke="#2e3436" d="M105.08,-98.23C97.13,-85.51 87.04,-69.37 78.33,-55.43"/>
<polygon fill="#2e3436" stroke="#2e3436" points="81.11,-53.27 72.84,-46.64 75.17,-56.98 81.11,-53.27"/>
<text text-anchor="middle" x="119" y="-68.8" font-family="Times,serif" font-size="14.00" fill="#2e3436">KNOWS</text>
</g>
<!-- N5 -->
<g id="node6" class="node">
<title>N5</title>
<path fill="none" stroke="black" d="M25.5,-424.5C25.5,-424.5 92.5,-424.5 92.5,-424.5 98.5,-424.5 104.5,-430.5 104.5,-436.5 104.5,-436.5 104.5,-458.5 104.5,-458.5 104.5,-464.5 98.5,-470.5 92.5,-470.5 92.5,-470.5 25.5,-470.5 25.5,-470.5 19.5,-470.5 13.5,-464.5 13.5,-458.5 13.5,-458.5 13.5,-436.5 13.5,-436.5 13.5,-430.5 19.5,-424.5 25.5,-424.5"/>
<text text-anchor="middle" x="59" y="-455.3" font-family="Times,serif" font-size="14.00">Node[5]</text>
<polyline fill="none" stroke="black" points="13.5,-447.5 104.5,-447.5 "/>
<text text-anchor="start" x="21.5" y="-432.3" font-family="Times,serif" font-size="14.00">name = &#39;Lisa&#39;</text>
</g>
<!-- N5&#45;&gt;N0 -->
<g id="edge6" class="edge">
<title>N5&#45;&gt;N0</title>
<path fill="none" stroke="#4e9a06" d="M48.48,-424.24C46.22,-418.43 44.16,-412.09 43,-406 37.41,-376.64 38.06,-342.52 39.72,-318.1"/>
<polygon fill="#4e9a06" stroke="#4e9a06" points="43.23,-318.18 40.51,-307.94 36.25,-317.64 43.23,-318.18"/>
<text text-anchor="middle" x="62.5" y="-394.8" font-family="Times,serif" font-size="14.00" fill="#4e9a06">LIKES</text>
</g>
<!-- N5&#45;&gt;N1 -->
<g id="edge5" class="edge">
<title>N5&#45;&gt;N1</title>
<path fill="none" stroke="#2e3436" d="M72.92,-424.23C80.87,-411.51 90.96,-395.37 99.67,-381.43"/>
<polygon fill="#2e3436" stroke="#2e3436" points="102.83,-382.98 105.16,-372.64 96.89,-379.27 102.83,-382.98"/>
<text text-anchor="middle" x="119" y="-394.8" font-family="Times,serif" font-size="14.00" fill="#2e3436">KNOWS</text>
</g>
<!-- N6 -->
<g id="node7" class="node">
<title>N6</title>
<path fill="none" stroke="black" d="M150.5,-424.5C150.5,-424.5 209.5,-424.5 209.5,-424.5 215.5,-424.5 221.5,-430.5 221.5,-436.5 221.5,-436.5 221.5,-458.5 221.5,-458.5 221.5,-464.5 215.5,-470.5 209.5,-470.5 209.5,-470.5 150.5,-470.5 150.5,-470.5 144.5,-470.5 138.5,-464.5 138.5,-458.5 138.5,-458.5 138.5,-436.5 138.5,-436.5 138.5,-430.5 144.5,-424.5 150.5,-424.5"/>
<text text-anchor="middle" x="180" y="-455.3" font-family="Times,serif" font-size="14.00">Node[6]</text>
<polyline fill="none" stroke="black" points="138.5,-447.5 221.5,-447.5 "/>
<text text-anchor="start" x="146.5" y="-432.3" font-family="Times,serif" font-size="14.00">name = &#39;Ed&#39;</text>
</g>
<!-- N6&#45;&gt;N1 -->
<g id="edge7" class="edge">
<title>N6&#45;&gt;N1</title>
<path fill="none" stroke="#2e3436" d="M168.41,-424.24C162.84,-413.94 155.89,-401.66 149,-391 146.87,-387.7 144.57,-384.32 142.22,-380.98"/>
<polygon fill="#2e3436" stroke="#2e3436" points="145.03,-378.9 136.34,-372.84 139.36,-383 145.03,-378.9"/>
<text text-anchor="middle" x="184" y="-394.8" font-family="Times,serif" font-size="14.00" fill="#2e3436">KNOWS</text>
</g>
</g>
</svg>
