<?xml version="1.0" encoding="UTF-8" standalone="no"?>
<!DOCTYPE svg PUBLIC "-//W3C//DTD SVG 1.1//EN"
 "http://www.w3.org/Graphics/SVG/1.1/DTD/svg11.dtd">
<!-- Generated by graphviz version 2.44.0 ()
 -->
<!-- Title: L Pages: 1 -->
<svg width="462pt" height="153pt"
 viewBox="0.00 0.00 462.00 153.00" xmlns="http://www.w3.org/2000/svg" xmlns:xlink="http://www.w3.org/1999/xlink">
<g id="graph0" class="graph" transform="scale(1 1) rotate(0) translate(4 149)">
<title>L</title>
<polygon fill="white" stroke="transparent" points="-4,4 -4,-149 458,-149 458,4 -4,4"/>
<!-- N0 -->
<g id="node1" class="node">
<title>N0</title>
<path fill="none" stroke="black" d="M170,-0.5C170,-0.5 238,-0.5 238,-0.5 244,-0.5 250,-6.5 250,-12.5 250,-12.5 250,-34.5 250,-34.5 250,-40.5 244,-46.5 238,-46.5 238,-46.5 170,-46.5 170,-46.5 164,-46.5 158,-40.5 158,-34.5 158,-34.5 158,-12.5 158,-12.5 158,-6.5 164,-0.5 170,-0.5"/>
<text text-anchor="middle" x="204" y="-31.3" font-family="Times,serif" font-size="14.00">Node[0]</text>
<polyline fill="none" stroke="black" points="158,-23.5 250,-23.5 "/>
<text text-anchor="start" x="166" y="-8.3" font-family="Times,serif" font-size="14.00">name = &#39;Pet3&#39;</text>
</g>
<!-- N1 -->
<g id="node2" class="node">
<title>N1</title>
<path fill="none" stroke="black" d="M12,-98.5C12,-98.5 112,-98.5 112,-98.5 118,-98.5 124,-104.5 124,-110.5 124,-110.5 124,-132.5 124,-132.5 124,-138.5 118,-144.5 112,-144.5 112,-144.5 12,-144.5 12,-144.5 6,-144.5 0,-138.5 0,-132.5 0,-132.5 0,-110.5 0,-110.5 0,-104.5 6,-98.5 12,-98.5"/>
<text text-anchor="middle" x="62" y="-129.3" font-family="Times,serif" font-size="14.00">Node[1]</text>
<polyline fill="none" stroke="black" points="0,-121.5 124,-121.5 "/>
<text text-anchor="start" x="8" y="-106.3" font-family="Times,serif" font-size="14.00">name = &#39;Principal1&#39;</text>
</g>
<!-- N1&#45;&gt;N0 -->
<g id="edge2" class="edge">
<title>N1&#45;&gt;N0</title>
<path fill="none" stroke="#2e3436" d="M68.33,-98.23C72.55,-86.93 79.16,-73.77 89,-65 98.34,-56.67 123.61,-47.39 148.08,-39.81"/>
<polygon fill="#2e3436" stroke="#2e3436" points="149.19,-43.14 157.75,-36.9 147.17,-36.44 149.19,-43.14"/>
<text text-anchor="middle" x="103.5" y="-68.8" font-family="Times,serif" font-size="14.00" fill="#2e3436">owns</text>
</g>
<!-- N5 -->
<g id="node3" class="node">
<title>N5</title>
<path fill="none" stroke="black" d="M34,-0.5C34,-0.5 102,-0.5 102,-0.5 108,-0.5 114,-6.5 114,-12.5 114,-12.5 114,-34.5 114,-34.5 114,-40.5 108,-46.5 102,-46.5 102,-46.5 34,-46.5 34,-46.5 28,-46.5 22,-40.5 22,-34.5 22,-34.5 22,-12.5 22,-12.5 22,-6.5 28,-0.5 34,-0.5"/>
<text text-anchor="middle" x="68" y="-31.3" font-family="Times,serif" font-size="14.00">Node[5]</text>
<polyline fill="none" stroke="black" points="22,-23.5 114,-23.5 "/>
<text text-anchor="start" x="30" y="-8.3" font-family="Times,serif" font-size="14.00">name = &#39;Pet1&#39;</text>
</g>
<!-- N1&#45;&gt;N5 -->
<g id="edge1" class="edge">
<title>N1&#45;&gt;N5</title>
<path fill="none" stroke="#2e3436" d="M43.73,-98.48C37.59,-88.45 33.17,-76.31 37,-65 38.14,-61.63 39.69,-58.31 41.49,-55.13"/>
<polygon fill="#2e3436" stroke="#2e3436" points="44.57,-56.81 47.09,-46.52 38.7,-52.99 44.57,-56.81"/>
<text text-anchor="middle" x="51.5" y="-68.8" font-family="Times,serif" font-size="14.00" fill="#2e3436">owns</text>
</g>
<!-- N2 -->
<g id="node4" class="node">
<title>N2</title>
<path fill="none" stroke="black" d="M190,-98.5C190,-98.5 258,-98.5 258,-98.5 264,-98.5 270,-104.5 270,-110.5 270,-110.5 270,-132.5 270,-132.5 270,-138.5 264,-144.5 258,-144.5 258,-144.5 190,-144.5 190,-144.5 184,-144.5 178,-138.5 178,-132.5 178,-132.5 178,-110.5 178,-110.5 178,-104.5 184,-98.5 190,-98.5"/>
<text text-anchor="middle" x="224" y="-129.3" font-family="Times,serif" font-size="14.00">Node[2]</text>
<polyline fill="none" stroke="black" points="178,-121.5 270,-121.5 "/>
<text text-anchor="start" x="186" y="-106.3" font-family="Times,serif" font-size="14.00">name = &#39;Pet0&#39;</text>
</g>
<!-- N2&#45;&gt;N0 -->
<g id="edge3" class="edge">
<title>N2&#45;&gt;N0</title>
<path fill="none" stroke="#4e9a06" d="M219.36,-98.23C216.79,-85.88 213.54,-70.29 210.69,-56.63"/>
<polygon fill="#4e9a06" stroke="#4e9a06" points="214.08,-55.72 208.61,-46.64 207.23,-57.15 214.08,-55.72"/>
<text text-anchor="middle" x="245.5" y="-68.8" font-family="Times,serif" font-size="14.00" fill="#4e9a06">descendant</text>
</g>
<!-- N2&#45;&gt;N5 -->
<g id="edge5" class="edge">
<title>N2&#45;&gt;N5</title>
<path fill="none" stroke="#4e9a06" d="M179.48,-98.32C168.7,-92.62 157.31,-86.3 147,-80 133.15,-71.54 118.48,-61.55 105.59,-52.38"/>
<polygon fill="#4e9a06" stroke="#4e9a06" points="107.57,-49.49 97.4,-46.51 103.49,-55.18 107.57,-49.49"/>
<text text-anchor="middle" x="177.5" y="-68.8" font-family="Times,serif" font-size="14.00" fill="#4e9a06">descendant</text>
</g>
<!-- N4 -->
<g id="node5" class="node">
<title>N4</title>
<path fill="none" stroke="black" d="M293,-0.5C293,-0.5 361,-0.5 361,-0.5 367,-0.5 373,-6.5 373,-12.5 373,-12.5 373,-34.5 373,-34.5 373,-40.5 367,-46.5 361,-46.5 361,-46.5 293,-46.5 293,-46.5 287,-46.5 281,-40.5 281,-34.5 281,-34.5 281,-12.5 281,-12.5 281,-6.5 287,-0.5 293,-0.5"/>
<text text-anchor="middle" x="327" y="-31.3" font-family="Times,serif" font-size="14.00">Node[4]</text>
<polyline fill="none" stroke="black" points="281,-23.5 373,-23.5 "/>
<text text-anchor="start" x="289" y="-8.3" font-family="Times,serif" font-size="14.00">name = &#39;Pet2&#39;</text>
</g>
<!-- N2&#45;&gt;N4 -->
<g id="edge4" class="edge">
<title>N2&#45;&gt;N4</title>
<path fill="none" stroke="#4e9a06" d="M257.32,-98.43C265.05,-92.76 273.05,-86.44 280,-80 288.37,-72.25 296.68,-63.06 303.94,-54.4"/>
<polygon fill="#4e9a06" stroke="#4e9a06" points="306.65,-56.62 310.28,-46.67 301.24,-52.19 306.65,-56.62"/>
<text text-anchor="middle" x="323.5" y="-68.8" font-family="Times,serif" font-size="14.00" fill="#4e9a06">descendant</text>
</g>
<!-- N3 -->
<g id="node6" class="node">
<title>N3</title>
<path fill="none" stroke="black" d="M342,-98.5C342,-98.5 442,-98.5 442,-98.5 448,-98.5 454,-104.5 454,-110.5 454,-110.5 454,-132.5 454,-132.5 454,-138.5 448,-144.5 442,-144.5 442,-144.5 342,-144.5 342,-144.5 336,-144.5 330,-138.5 330,-132.5 330,-132.5 330,-110.5 330,-110.5 330,-104.5 336,-98.5 342,-98.5"/>
<text text-anchor="middle" x="392" y="-129.3" font-family="Times,serif" font-size="14.00">Node[3]</text>
<polyline fill="none" stroke="black" points="330,-121.5 454,-121.5 "/>
<text text-anchor="start" x="338" y="-106.3" font-family="Times,serif" font-size="14.00">name = &#39;Principal2&#39;</text>
</g>
<!-- N3&#45;&gt;N4 -->
<g id="edge6" class="edge">
<title>N3&#45;&gt;N4</title>
<path fill="none" stroke="#2e3436" d="M385.7,-98.33C382.08,-87.7 376.87,-75.12 370,-65 367.47,-61.27 364.54,-57.63 361.43,-54.16"/>
<polygon fill="#2e3436" stroke="#2e3436" points="363.85,-51.62 354.39,-46.85 358.8,-56.48 363.85,-51.62"/>
<text text-anchor="middle" x="392.5" y="-68.8" font-family="Times,serif" font-size="14.00" fill="#2e3436">owns</text>
</g>
</g>
</svg>
